<mxfile host="app.diagrams.net" modified="2021-10-30T22:24:53.829Z" agent="5.0 (Macintosh; Intel Mac OS X 10_15_7) AppleWebKit/537.36 (KHTML, like Gecko) Chrome/95.0.4638.54 Safari/537.36" etag="uplWv8xzLiF-qbXNdbDR" version="15.6.2" type="github">
  <diagram id="sUT08qioEKnFUg04Lj_r" name="Page-1">
    <mxGraphModel dx="1259" dy="590" grid="1" gridSize="10" guides="1" tooltips="1" connect="1" arrows="1" fold="1" page="0" pageScale="1" pageWidth="850" pageHeight="1100" background="#33FFFF" math="0" shadow="0">
      <root>
        <mxCell id="0" />
        <mxCell id="1" parent="0" />
        <mxCell id="2" value="User" style="rounded=0;whiteSpace=wrap;html=1;" parent="1" vertex="1">
          <mxGeometry x="260" y="180" width="120" height="60" as="geometry" />
        </mxCell>
        <mxCell id="3" value="UserId: int&lt;br&gt;First Name: String&lt;br&gt;Last Name: String&lt;br&gt;Password: String&lt;br&gt;User Name: String&lt;br&gt;Picture: String&lt;br&gt;Role: String" style="rounded=0;whiteSpace=wrap;html=1;" parent="1" vertex="1">
          <mxGeometry x="260" y="240" width="120" height="100" as="geometry" />
        </mxCell>
        <mxCell id="10" style="edgeStyle=orthogonalEdgeStyle;rounded=0;orthogonalLoop=1;jettySize=auto;html=1;exitX=0.5;exitY=0;exitDx=0;exitDy=0;entryX=0;entryY=1;entryDx=0;entryDy=0;" parent="1" source="4" target="3" edge="1">
          <mxGeometry relative="1" as="geometry" />
        </mxCell>
        <mxCell id="4" value="Volunteer" style="rounded=0;whiteSpace=wrap;html=1;" parent="1" vertex="1">
          <mxGeometry x="60" y="440" width="120" height="60" as="geometry" />
        </mxCell>
        <mxCell id="11" style="edgeStyle=orthogonalEdgeStyle;rounded=0;orthogonalLoop=1;jettySize=auto;html=1;exitX=0.5;exitY=0;exitDx=0;exitDy=0;entryX=0.5;entryY=1;entryDx=0;entryDy=0;" parent="1" source="5" target="3" edge="1">
          <mxGeometry relative="1" as="geometry">
            <mxPoint x="190" y="360" as="targetPoint" />
          </mxGeometry>
        </mxCell>
        <mxCell id="5" value="Donor" style="rounded=0;whiteSpace=wrap;html=1;" parent="1" vertex="1">
          <mxGeometry x="220" y="440" width="120" height="60" as="geometry" />
        </mxCell>
        <mxCell id="12" style="edgeStyle=orthogonalEdgeStyle;rounded=0;orthogonalLoop=1;jettySize=auto;html=1;exitX=0.5;exitY=0;exitDx=0;exitDy=0;entryX=0.75;entryY=1;entryDx=0;entryDy=0;" parent="1" source="6" target="3" edge="1">
          <mxGeometry relative="1" as="geometry" />
        </mxCell>
        <mxCell id="6" value="Other" style="rounded=0;whiteSpace=wrap;html=1;" parent="1" vertex="1">
          <mxGeometry x="370" y="440" width="120" height="60" as="geometry" />
        </mxCell>
        <mxCell id="7" value="view_events()" style="rounded=0;whiteSpace=wrap;html=1;" parent="1" vertex="1">
          <mxGeometry x="370" y="500" width="120" height="60" as="geometry" />
        </mxCell>
        <mxCell id="8" value="viewEvents()&lt;br&gt;volunteer()&lt;br&gt;donate()" style="rounded=0;whiteSpace=wrap;html=1;" parent="1" vertex="1">
          <mxGeometry x="220" y="500" width="120" height="60" as="geometry" />
        </mxCell>
        <mxCell id="9" value="view_events()&lt;br&gt;volunteer()" style="rounded=0;whiteSpace=wrap;html=1;" parent="1" vertex="1">
          <mxGeometry x="60" y="500" width="120" height="60" as="geometry" />
        </mxCell>
        <mxCell id="15" style="edgeStyle=orthogonalEdgeStyle;rounded=0;orthogonalLoop=1;jettySize=auto;html=1;exitX=1;exitY=0.5;exitDx=0;exitDy=0;entryX=0;entryY=0.5;entryDx=0;entryDy=0;" parent="1" source="13" target="2" edge="1">
          <mxGeometry relative="1" as="geometry" />
        </mxCell>
        <mxCell id="13" value="Admin" style="rounded=0;whiteSpace=wrap;html=1;" parent="1" vertex="1">
          <mxGeometry x="70" y="180" width="120" height="60" as="geometry" />
        </mxCell>
        <mxCell id="14" value="create_event()&lt;br&gt;delete_event()&lt;br&gt;create_user()&lt;br&gt;delete_user()&lt;br&gt;viewEvents()&lt;br&gt;volunteer()&lt;br&gt;donate()" style="rounded=0;whiteSpace=wrap;html=1;" parent="1" vertex="1">
          <mxGeometry x="70" y="240" width="120" height="100" as="geometry" />
        </mxCell>
        <mxCell id="16" value="Event" style="rounded=0;whiteSpace=wrap;html=1;" parent="1" vertex="1">
          <mxGeometry x="640" y="180" width="140" height="60" as="geometry" />
        </mxCell>
        <mxCell id="17" value="Program" style="rounded=0;whiteSpace=wrap;html=1;" parent="1" vertex="1">
          <mxGeometry x="640" y="490" width="140" height="60" as="geometry" />
        </mxCell>
        <mxCell id="18" value="Organization" style="rounded=0;whiteSpace=wrap;html=1;" parent="1" vertex="1">
          <mxGeometry x="460" y="260" width="120" height="60" as="geometry" />
        </mxCell>
        <mxCell id="19" value="EventID: int&lt;br&gt;Event Name: String&lt;br&gt;Start Time: String&lt;br&gt;End Time: String&lt;br&gt;Event Date: String&lt;br&gt;Location: String&lt;br&gt;Description: String&lt;br&gt;Volunteers Needed: int&lt;br&gt;Donation Goal: int" style="rounded=0;whiteSpace=wrap;html=1;" parent="1" vertex="1">
          <mxGeometry x="640" y="240" width="140" height="140" as="geometry" />
        </mxCell>
        <mxCell id="20" value="" style="endArrow=none;html=1;exitX=1;exitY=0.5;exitDx=0;exitDy=0;entryX=0;entryY=0.5;entryDx=0;entryDy=0;" parent="1" source="2" target="16" edge="1">
          <mxGeometry width="50" height="50" relative="1" as="geometry">
            <mxPoint x="400" y="235" as="sourcePoint" />
            <mxPoint x="450" y="185" as="targetPoint" />
          </mxGeometry>
        </mxCell>
        <mxCell id="21" value="EventID: int&lt;br&gt;Program Name: String&lt;br&gt;Start Time: String&lt;br&gt;End Time: String&lt;br&gt;Date: String&lt;br&gt;Location: String&lt;br&gt;Description: String&lt;br&gt;Donation Goal: int" style="rounded=0;whiteSpace=wrap;html=1;" parent="1" vertex="1">
          <mxGeometry x="640" y="550" width="140" height="140" as="geometry" />
        </mxCell>
        <mxCell id="22" value="" style="endArrow=none;html=1;entryX=0;entryY=0.25;entryDx=0;entryDy=0;exitX=1;exitY=0.5;exitDx=0;exitDy=0;" parent="1" source="3" target="17" edge="1">
          <mxGeometry width="50" height="50" relative="1" as="geometry">
            <mxPoint x="450" y="380" as="sourcePoint" />
            <mxPoint x="500" y="330" as="targetPoint" />
          </mxGeometry>
        </mxCell>
        <mxCell id="23" value="" style="endArrow=none;html=1;entryX=0.5;entryY=1;entryDx=0;entryDy=0;exitX=0.5;exitY=0;exitDx=0;exitDy=0;" parent="1" source="17" target="19" edge="1">
          <mxGeometry width="50" height="50" relative="1" as="geometry">
            <mxPoint x="450" y="380" as="sourcePoint" />
            <mxPoint x="500" y="330" as="targetPoint" />
          </mxGeometry>
        </mxCell>
        <mxCell id="24" value="&lt;span style=&quot;font-size: 15px&quot;&gt;m&lt;/span&gt;" style="text;html=1;strokeColor=none;fillColor=none;align=center;verticalAlign=middle;whiteSpace=wrap;rounded=0;" parent="1" vertex="1">
          <mxGeometry x="608" y="468" width="40" height="20" as="geometry" />
        </mxCell>
        <mxCell id="25" value="&lt;span style=&quot;font-size: 15px&quot;&gt;1&lt;/span&gt;" style="text;html=1;strokeColor=none;fillColor=none;align=center;verticalAlign=middle;whiteSpace=wrap;rounded=0;" parent="1" vertex="1">
          <mxGeometry x="680" y="470" width="40" height="20" as="geometry" />
        </mxCell>
        <mxCell id="28" value="&lt;font style=&quot;font-size: 15px&quot;&gt;n&lt;/font&gt;" style="text;html=1;strokeColor=none;fillColor=none;align=center;verticalAlign=middle;whiteSpace=wrap;rounded=0;" parent="1" vertex="1">
          <mxGeometry x="680" y="380" width="40" height="20" as="geometry" />
        </mxCell>
        <mxCell id="29" value="&lt;font style=&quot;font-size: 15px&quot;&gt;m&lt;/font&gt;" style="text;html=1;strokeColor=none;fillColor=none;align=center;verticalAlign=middle;whiteSpace=wrap;rounded=0;" parent="1" vertex="1">
          <mxGeometry x="600" y="190" width="40" height="20" as="geometry" />
        </mxCell>
        <mxCell id="30" value="&lt;font style=&quot;font-size: 15px&quot;&gt;n&lt;/font&gt;" style="text;html=1;strokeColor=none;fillColor=none;align=center;verticalAlign=middle;whiteSpace=wrap;rounded=0;" parent="1" vertex="1">
          <mxGeometry x="380" y="280" width="40" height="20" as="geometry" />
        </mxCell>
        <mxCell id="31" value="&lt;font style=&quot;font-size: 15px&quot;&gt;n&lt;/font&gt;" style="text;html=1;strokeColor=none;fillColor=none;align=center;verticalAlign=middle;whiteSpace=wrap;rounded=0;" parent="1" vertex="1">
          <mxGeometry x="370" y="190" width="40" height="20" as="geometry" />
        </mxCell>
        <mxCell id="34" value="" style="endArrow=none;html=1;exitX=1;exitY=0.75;exitDx=0;exitDy=0;entryX=0;entryY=0.25;entryDx=0;entryDy=0;" parent="1" source="2" target="18" edge="1">
          <mxGeometry width="50" height="50" relative="1" as="geometry">
            <mxPoint x="390" y="260" as="sourcePoint" />
            <mxPoint x="440" y="210" as="targetPoint" />
          </mxGeometry>
        </mxCell>
        <mxCell id="35" value="&lt;font style=&quot;font-size: 15px&quot;&gt;n&lt;/font&gt;" style="text;html=1;strokeColor=none;fillColor=none;align=center;verticalAlign=middle;whiteSpace=wrap;rounded=0;" parent="1" vertex="1">
          <mxGeometry x="388" y="220" width="40" height="20" as="geometry" />
        </mxCell>
        <mxCell id="36" value="&lt;span style=&quot;font-size: 15px&quot;&gt;1&lt;/span&gt;" style="text;html=1;strokeColor=none;fillColor=none;align=center;verticalAlign=middle;whiteSpace=wrap;rounded=0;" parent="1" vertex="1">
          <mxGeometry x="430" y="270" width="40" height="20" as="geometry" />
        </mxCell>
        <mxCell id="qMAaSZyBrxotYyfBj_Sa-47" style="edgeStyle=orthogonalEdgeStyle;rounded=0;orthogonalLoop=1;jettySize=auto;html=1;" parent="1" source="qMAaSZyBrxotYyfBj_Sa-42" target="qMAaSZyBrxotYyfBj_Sa-43" edge="1">
          <mxGeometry relative="1" as="geometry" />
        </mxCell>
        <mxCell id="qMAaSZyBrxotYyfBj_Sa-42" value="Home" style="rounded=0;whiteSpace=wrap;html=1;" parent="1" vertex="1">
          <mxGeometry x="320" y="1292" width="200" height="30" as="geometry" />
        </mxCell>
        <mxCell id="qMAaSZyBrxotYyfBj_Sa-43" value="homeIcon(): link&lt;br&gt;eventsText(): link&lt;br&gt;loginText() or logoutText(): link&lt;br&gt;profileText(): link&lt;br&gt;&lt;br&gt;findEvents(): button&lt;br&gt;&lt;br&gt;facebookIcon(): link&lt;br&gt;instagramIcon(): link&lt;br&gt;linkedInIcon(): link&lt;br&gt;youtubeIcon(): link&lt;br&gt;copyrightText(): display" style="rounded=0;whiteSpace=wrap;html=1;" parent="1" vertex="1">
          <mxGeometry x="320" y="1322" width="200" height="178" as="geometry" />
        </mxCell>
        <mxCell id="qMAaSZyBrxotYyfBj_Sa-45" value="Events" style="rounded=0;whiteSpace=wrap;html=1;" parent="1" vertex="1">
          <mxGeometry x="611" y="1058" width="210" height="30" as="geometry" />
        </mxCell>
        <mxCell id="qMAaSZyBrxotYyfBj_Sa-46" value="homeIcon(): link&lt;br&gt;eventsText(): link&lt;br&gt;loginText() or logoutText(): link&lt;br&gt;profileText(): link&lt;br&gt;&lt;br&gt;eventCards(): link&lt;br&gt;eventCardsTitle(): display&lt;br&gt;eventCardsDate(): display&lt;br&gt;eventCardsLocation(): display&lt;br&gt;&lt;br&gt;facebookLink(): link&lt;br&gt;instagramLink(): link&lt;br&gt;linkedInLink(): link&lt;br&gt;youtubeIcon(): link&lt;br&gt;copyrightText(): display" style="rounded=0;whiteSpace=wrap;html=1;" parent="1" vertex="1">
          <mxGeometry x="611" y="1088" width="210" height="230" as="geometry" />
        </mxCell>
        <mxCell id="qMAaSZyBrxotYyfBj_Sa-50" value="&lt;font style=&quot;font-size: 14px&quot;&gt;&lt;b&gt;Class Diagram for Aptiv Web App&lt;/b&gt;&lt;/font&gt;&lt;br&gt;CS 341&lt;br&gt;Group #2: Andrew Krause, Riley Radle, Anthony Musbach, Zach Gephart" style="rounded=0;whiteSpace=wrap;html=1;" parent="1" vertex="1">
          <mxGeometry x="191" y="30" width="468" height="60" as="geometry" />
        </mxCell>
        <mxCell id="qMAaSZyBrxotYyfBj_Sa-56" value="Specific Event" style="rounded=0;whiteSpace=wrap;html=1;fontStyle=0" parent="1" vertex="1">
          <mxGeometry x="606" y="1368" width="220" height="30" as="geometry" />
        </mxCell>
        <mxCell id="qMAaSZyBrxotYyfBj_Sa-57" value="homeIcon(): link&lt;br&gt;eventsText(): link&lt;br&gt;loginText() or logoutText(): link&lt;br&gt;profileText(): link&lt;br&gt;&lt;br&gt;eventTitle(): display&amp;nbsp;&lt;br&gt;eventDate(): display&lt;br&gt;eventTime(): display&lt;br&gt;eventLocation(): display&amp;nbsp;&amp;nbsp;&lt;br&gt;eventDescription(): display&lt;br&gt;neededVolunteers(): display&lt;br&gt;neededDonations(): display&lt;br&gt;volunteer(): button&lt;br&gt;donationInput(): input&lt;br&gt;donate(): button&lt;br&gt;back(): button&lt;br&gt;&lt;br&gt;facebookIcon(): link&lt;br&gt;instagramIcon(): link&lt;br&gt;linkedInIcon(): link&lt;br&gt;youtubeIcon(): link&lt;br&gt;copyrightText(): display" style="rounded=0;whiteSpace=wrap;html=1;fontStyle=0" parent="1" vertex="1">
          <mxGeometry x="606" y="1398" width="220" height="330" as="geometry" />
        </mxCell>
        <mxCell id="qMAaSZyBrxotYyfBj_Sa-62" value="Create Event" style="rounded=0;whiteSpace=wrap;html=1;" parent="1" vertex="1">
          <mxGeometry x="-230" y="1490" width="230" height="30" as="geometry" />
        </mxCell>
        <mxCell id="qMAaSZyBrxotYyfBj_Sa-63" value="homeIcon(): link&lt;br&gt;eventsText(): link&lt;br&gt;logoutText(): link&lt;br&gt;profileText(): link&lt;br&gt;&lt;br&gt;createText(): text&lt;br&gt;eventName(): input&lt;br&gt;eventDate(): input&lt;br&gt;eventStartTime(): input&lt;br&gt;eventEndTime(): input&lt;br&gt;eventLocation(): input&lt;br&gt;eventDescription(): input&lt;br&gt;eventVolunteers(): input&lt;br&gt;eventDonations(): input&lt;br&gt;create(): button&lt;br&gt;cancel(): button&lt;br&gt;&lt;br&gt;facebookIcon(): link&lt;br&gt;instagramIcon(): link&lt;br&gt;linkedInIcon(): link&lt;br&gt;youtubeIcon(): link&lt;br&gt;copyrightText(): display" style="rounded=0;whiteSpace=wrap;html=1;" parent="1" vertex="1">
          <mxGeometry x="-230" y="1520" width="230" height="330" as="geometry" />
        </mxCell>
        <mxCell id="qMAaSZyBrxotYyfBj_Sa-70" value="" style="endArrow=none;html=1;rounded=1;entryX=0.5;entryY=1;entryDx=0;entryDy=0;exitX=0.5;exitY=0;exitDx=0;exitDy=0;" parent="1" source="qMAaSZyBrxotYyfBj_Sa-56" target="qMAaSZyBrxotYyfBj_Sa-46" edge="1">
          <mxGeometry width="50" height="50" relative="1" as="geometry">
            <mxPoint x="716" y="1378" as="sourcePoint" />
            <mxPoint x="686" y="1348" as="targetPoint" />
          </mxGeometry>
        </mxCell>
        <mxCell id="qMAaSZyBrxotYyfBj_Sa-72" value="app.js" style="rounded=0;whiteSpace=wrap;html=1;" parent="1" vertex="1">
          <mxGeometry x="320" y="920" width="200" height="30" as="geometry" />
        </mxCell>
        <mxCell id="qMAaSZyBrxotYyfBj_Sa-73" value="installed packages&lt;br&gt;database schemas&lt;br&gt;connect to MongoDB&lt;br&gt;get routes()&lt;br&gt;post routes()&lt;br&gt;utilize EJS&lt;br&gt;utilize CSS" style="rounded=0;whiteSpace=wrap;html=1;" parent="1" vertex="1">
          <mxGeometry x="320" y="950" width="200" height="130" as="geometry" />
        </mxCell>
        <mxCell id="qMAaSZyBrxotYyfBj_Sa-74" value="" style="endArrow=classic;html=1;rounded=1;exitX=0.5;exitY=1;exitDx=0;exitDy=0;" parent="1" source="qMAaSZyBrxotYyfBj_Sa-73" target="qMAaSZyBrxotYyfBj_Sa-42" edge="1">
          <mxGeometry width="50" height="50" relative="1" as="geometry">
            <mxPoint x="380" y="1110" as="sourcePoint" />
            <mxPoint x="419" y="1290" as="targetPoint" />
          </mxGeometry>
        </mxCell>
        <mxCell id="qMAaSZyBrxotYyfBj_Sa-75" value="Login" style="rounded=0;whiteSpace=wrap;html=1;" parent="1" vertex="1">
          <mxGeometry x="60" y="1590" width="220" height="30" as="geometry" />
        </mxCell>
        <mxCell id="qMAaSZyBrxotYyfBj_Sa-76" value="homeIcon(): link&lt;br&gt;subText(): display&lt;br&gt;&lt;br&gt;emailInput(): input&lt;br&gt;passwordInput(): input&lt;br&gt;login(): button&lt;br&gt;googleSignIn(): link&lt;br&gt;registerLink(): link&lt;br&gt;&lt;br&gt;facebookIcon(): link&lt;br&gt;instagramIcon(): link&lt;br&gt;linkedInIcon(): link&lt;br&gt;youtubeIcon(): link&lt;br&gt;copyrightText(): display" style="rounded=0;whiteSpace=wrap;html=1;" parent="1" vertex="1">
          <mxGeometry x="60" y="1620" width="220" height="230" as="geometry" />
        </mxCell>
        <mxCell id="qMAaSZyBrxotYyfBj_Sa-77" value="Register" style="rounded=0;whiteSpace=wrap;html=1;" parent="1" vertex="1">
          <mxGeometry x="333" y="1580" width="220" height="30" as="geometry" />
        </mxCell>
        <mxCell id="qMAaSZyBrxotYyfBj_Sa-78" value="homeIcon(): link&lt;br&gt;subText(): display&lt;br&gt;&lt;br&gt;firstNameInput(): input&lt;br&gt;lastNameInput(): input&lt;br&gt;emailInput(): input&lt;br&gt;passwordInput(): input&lt;br&gt;register(): button&lt;br&gt;googleSignIn(): link&lt;br&gt;login(): link&lt;br&gt;&lt;br&gt;facebookIcon(): link&lt;br&gt;instagramIcon(): link&lt;br&gt;linkedInIcon(): link&lt;br&gt;youtubeIcon(): link&lt;br&gt;copyrightText(): display" style="rounded=0;whiteSpace=wrap;html=1;" parent="1" vertex="1">
          <mxGeometry x="333" y="1610" width="220" height="240" as="geometry" />
        </mxCell>
        <mxCell id="qMAaSZyBrxotYyfBj_Sa-79" value="" style="endArrow=none;html=1;rounded=1;entryX=0;entryY=0.5;entryDx=0;entryDy=0;edgeStyle=orthogonalEdgeStyle;exitX=1.01;exitY=0.124;exitDx=0;exitDy=0;exitPerimeter=0;" parent="1" source="qMAaSZyBrxotYyfBj_Sa-43" target="qMAaSZyBrxotYyfBj_Sa-46" edge="1">
          <mxGeometry width="50" height="50" relative="1" as="geometry">
            <mxPoint x="530" y="1200" as="sourcePoint" />
            <mxPoint x="640" y="1170" as="targetPoint" />
          </mxGeometry>
        </mxCell>
        <mxCell id="qMAaSZyBrxotYyfBj_Sa-80" value="" style="endArrow=none;html=1;rounded=1;entryX=0.5;entryY=0;entryDx=0;entryDy=0;edgeStyle=orthogonalEdgeStyle;exitX=0.75;exitY=1;exitDx=0;exitDy=0;" parent="1" source="qMAaSZyBrxotYyfBj_Sa-43" target="qMAaSZyBrxotYyfBj_Sa-77" edge="1">
          <mxGeometry width="50" height="50" relative="1" as="geometry">
            <mxPoint x="160" y="1769.872" as="sourcePoint" />
            <mxPoint x="353" y="1615.8" as="targetPoint" />
          </mxGeometry>
        </mxCell>
        <mxCell id="qMAaSZyBrxotYyfBj_Sa-81" value="" style="endArrow=none;html=1;rounded=1;edgeStyle=orthogonalEdgeStyle;exitX=0;exitY=0.923;exitDx=0;exitDy=0;exitPerimeter=0;entryX=0.5;entryY=0;entryDx=0;entryDy=0;" parent="1" source="qMAaSZyBrxotYyfBj_Sa-43" target="qMAaSZyBrxotYyfBj_Sa-75" edge="1">
          <mxGeometry width="50" height="50" relative="1" as="geometry">
            <mxPoint x="180" y="1510" as="sourcePoint" />
            <mxPoint x="280" y="1790" as="targetPoint" />
          </mxGeometry>
        </mxCell>
        <mxCell id="qMAaSZyBrxotYyfBj_Sa-82" value="User Profile" style="rounded=0;whiteSpace=wrap;html=1;" parent="1" vertex="1">
          <mxGeometry x="50" y="970" width="220" height="30" as="geometry" />
        </mxCell>
        <mxCell id="qMAaSZyBrxotYyfBj_Sa-83" value="homeIcon(): link&lt;br&gt;eventsText(): link&lt;br&gt;logoutText(): link&lt;br&gt;profileText(): link&lt;br&gt;&lt;br&gt;profileImage(): display&lt;br&gt;welcomeText(): display&lt;br&gt;status(): display&lt;br&gt;viewEvents(): button&lt;br&gt;eventHistory(): button&lt;br&gt;userEvents(): display&lt;br&gt;events(): links&lt;br&gt;back(): button&lt;br&gt;logout(): button&lt;br&gt;&lt;br&gt;facebookIcon(): link&lt;br&gt;instagramIcon(): link&lt;br&gt;linkedInIcon(): link&lt;br&gt;youtubeIcon(): link&lt;br&gt;copyrightText(): display" style="rounded=0;whiteSpace=wrap;html=1;" parent="1" vertex="1">
          <mxGeometry x="50" y="1000" width="220" height="300" as="geometry" />
        </mxCell>
        <mxCell id="qMAaSZyBrxotYyfBj_Sa-84" value="" style="endArrow=none;html=1;rounded=1;edgeStyle=orthogonalEdgeStyle;exitX=-0.01;exitY=0.124;exitDx=0;exitDy=0;exitPerimeter=0;entryX=0.5;entryY=1;entryDx=0;entryDy=0;" parent="1" source="qMAaSZyBrxotYyfBj_Sa-43" target="qMAaSZyBrxotYyfBj_Sa-83" edge="1">
          <mxGeometry width="50" height="50" relative="1" as="geometry">
            <mxPoint x="60" y="1370.004" as="sourcePoint" />
            <mxPoint x="20" y="1513.71" as="targetPoint" />
          </mxGeometry>
        </mxCell>
        <mxCell id="qMAaSZyBrxotYyfBj_Sa-85" value="Admin Profile" style="rounded=0;whiteSpace=wrap;html=1;" parent="1" vertex="1">
          <mxGeometry x="-230" y="1100" width="220" height="30" as="geometry" />
        </mxCell>
        <mxCell id="qMAaSZyBrxotYyfBj_Sa-86" value="homeIcon(): link&lt;br&gt;eventsText(): link&lt;br&gt;logoutText(): link&lt;br&gt;profileText(): link&lt;br&gt;&lt;br&gt;profileImage(): display&lt;br&gt;welcomeText(): display&lt;br&gt;status(): display&lt;br&gt;viewEvents(): button&lt;br&gt;createEvent(): button&lt;br&gt;eventHistory(): button&lt;br&gt;userEvents(): display&lt;br&gt;events(): links&lt;br&gt;back(): button&lt;br&gt;logout(): button&lt;br&gt;&lt;br&gt;facebookIcon(): link&lt;br&gt;instagramIcon(): link&lt;br&gt;linkedInIcon(): link&lt;br&gt;youtubeIcon(): link&lt;br&gt;copyrightText(): display" style="rounded=0;whiteSpace=wrap;html=1;" parent="1" vertex="1">
          <mxGeometry x="-230" y="1130" width="220" height="320" as="geometry" />
        </mxCell>
        <mxCell id="qMAaSZyBrxotYyfBj_Sa-87" value="" style="endArrow=none;html=1;rounded=1;edgeStyle=orthogonalEdgeStyle;exitX=-0.01;exitY=0.427;exitDx=0;exitDy=0;exitPerimeter=0;entryX=1;entryY=0.75;entryDx=0;entryDy=0;" parent="1" source="qMAaSZyBrxotYyfBj_Sa-43" target="qMAaSZyBrxotYyfBj_Sa-86" edge="1">
          <mxGeometry width="50" height="50" relative="1" as="geometry">
            <mxPoint x="230" y="1400.0040000000001" as="sourcePoint" />
            <mxPoint x="190" y="1543.71" as="targetPoint" />
          </mxGeometry>
        </mxCell>
        <mxCell id="qMAaSZyBrxotYyfBj_Sa-89" value="" style="endArrow=none;html=1;rounded=1;edgeStyle=orthogonalEdgeStyle;exitX=0.522;exitY=1;exitDx=0;exitDy=0;exitPerimeter=0;entryX=0.5;entryY=0;entryDx=0;entryDy=0;" parent="1" source="qMAaSZyBrxotYyfBj_Sa-86" target="qMAaSZyBrxotYyfBj_Sa-62" edge="1">
          <mxGeometry width="50" height="50" relative="1" as="geometry">
            <mxPoint x="-95" y="1463.154" as="sourcePoint" />
            <mxPoint x="-115" y="1470" as="targetPoint" />
          </mxGeometry>
        </mxCell>
      </root>
    </mxGraphModel>
  </diagram>
</mxfile>
